<svg version="1.1" id="Layer_1" xmlns="http://www.w3.org/2000/svg" x="0" y="0" viewBox="0 0 140.1 140.1" xml:space="preserve"><style>.st1{fill:#fc9179}.st3{fill:#fa654d}</style><circle cx="70" cy="70" r="70" fill="#ffefeb"/><path class="st1" d="M83.4 108.3V96.6c0-1.5.5-3.3 1.5-4.3.9-.9 2.4-.9 3.7-.9l9.1-.3v2.1l-12.4 15-1.9.1z"/><path class="st1" d="M80.4 108.3V93.6c0-2.9 2.3-5.2 5.2-5.2h12.1V35.7c0-1-.5-2.1-1.1-2.7-.7-.7-1.7-1.1-2.7-1.1H46.3c-1.1 0-2.1.5-2.7 1.1-.8.7-1.1 1.7-1.1 2.7v68.7c0 1 .4 2 1.1 2.7.7.7 1.6 1.1 2.7 1.1l34.1.1z"/><path d="M72.6 42.3c-3.2-1.3-5.4 1-5.4 1l-20 47.3-1 14.5 9.5-10.9 20-47.2s.2-3.3-3.1-4.7z" fill="#d44322"/><path class="st1" d="M55 93.2l-3.3 3.7c-.4-.5-.9-.9-1.6-1.2-.8-.4-1.4-.4-2.1-.3l.4-4.9.3-.6s1.8-1.4 4.1-.5c2.3.9 2.5 3.2 2.5 3.2l-.3.6z"/><circle class="st3" cx="13.3" cy="18.5" r="13.3"/><path class="st3" d="M136.1 101l-20.3 14.7 20.3 13z"/></svg>